<svg width="150" height="150" viewBox="0 0 150 150" fill="none" xmlns="http://www.w3.org/2000/svg">
<circle cx="75" cy="75" r="72.5" fill="white" stroke="#040C18" stroke-width="5"/>
<g clip-path="url(#clip0_14_87)">
<path d="M63.0417 65.3333L53.875 74.5L63.0417 83.6667" stroke="#CA87FF" stroke-width="4" stroke-linecap="round" stroke-linejoin="round"/>
<path d="M85.9583 65.3333L95.125 74.5L85.9583 83.6667" stroke="#CA87FF" stroke-width="4" stroke-linecap="round" stroke-linejoin="round"/>
<path d="M79.0833 56.1667L69.9167 92.8333" stroke="#CA87FF" stroke-width="4" stroke-linecap="round" stroke-linejoin="round"/>
</g>
<path d="M19.0824 107.164L20.3688 106.665C19.5422 106.331 18.9015 105.983 18.4467 105.619C18.0104 105.262 17.6706 104.846 17.4274 104.371C16.947 103.434 16.9489 102.565 17.4331 101.765C17.9235 100.977 18.8398 100.323 20.1821 99.8012L21.2634 99.3813C22.5685 98.8745 23.7644 98.7799 24.8512 99.0977C25.9441 99.4273 26.7946 100.185 27.4027 101.372C27.579 101.716 27.7181 102.075 27.8199 102.448C27.9217 102.821 27.9924 103.206 28.032 103.603L32.842 101.735L33.5899 103.195L19.7939 108.553L19.0824 107.164ZM20.9575 101.314C19.988 101.691 19.3463 102.111 19.0324 102.574C18.737 103.044 18.7383 103.57 19.0362 104.152C19.2126 104.496 19.482 104.818 19.8445 105.118C20.2195 105.414 20.8357 105.729 21.6933 106.065L26.6151 104.153C26.6003 103.747 26.5419 103.371 26.4399 103.026C26.3503 102.677 26.2264 102.348 26.0683 102.04C25.6548 101.233 25.102 100.75 24.41 100.592C23.7241 100.446 22.9336 100.547 22.0388 100.894L20.9575 101.314Z" fill="black"/>
<path d="M30.9304 121.952C30.2674 121.718 29.6777 121.426 29.1613 121.076C28.6344 120.735 28.1883 120.389 27.8229 120.038C26.7941 119.049 26.3441 118.058 26.4731 117.065C26.6117 116.081 27.2358 115.151 28.3454 114.276L29.2876 113.533C30.3658 112.682 31.4795 112.241 32.6285 112.209C33.7871 112.187 34.828 112.619 35.751 113.506C36.2414 113.977 36.5786 114.493 36.7626 115.055C36.9667 115.617 36.9691 116.187 36.7698 116.765C36.5906 117.344 36.1608 117.901 35.4803 118.438C35.0407 118.785 34.4805 119.126 33.7998 119.461L29.5451 115.374L29.5137 115.398C28.7181 116.026 28.2652 116.644 28.155 117.252C28.0544 117.87 28.3407 118.502 29.0137 119.149C29.3214 119.444 29.6998 119.735 30.1489 120.019C30.6077 120.314 31.1039 120.561 31.6376 120.763L30.9304 121.952ZM34.6205 114.398C34.0628 113.862 33.4408 113.613 32.7546 113.649C32.0884 113.687 31.385 113.973 30.6443 114.506L33.875 117.61C34.0922 117.489 34.2846 117.363 34.4521 117.231C35.0384 116.768 35.3137 116.282 35.2782 115.771C35.2628 115.262 35.0435 114.804 34.6205 114.398Z" fill="black"/>
<path d="M50.6278 124.354L41.9302 130.914L40.5631 130.205L43.0109 120.405L44.5201 121.187L43.272 125.929L42.4543 128.882L45.0297 126.841L49.1897 123.609L50.6278 124.354Z" fill="black"/>
<path d="M61.7569 137.65C61.0907 137.808 60.4498 137.875 59.8341 137.853C59.2148 137.844 58.6574 137.786 58.1618 137.681C56.7664 137.384 55.8331 136.77 55.3619 135.84C54.9037 134.913 54.8657 133.769 55.2479 132.408L55.5724 131.253C55.9438 129.93 56.5804 128.944 57.4821 128.292C58.3968 127.643 59.4801 127.452 60.7321 127.719C61.3972 127.86 61.9657 128.124 62.4377 128.51C62.9264 128.887 63.258 129.379 63.4326 129.987C63.6238 130.586 63.6023 131.302 63.3679 132.137C63.2164 132.676 62.9651 133.275 62.6139 133.935L56.8432 132.707L56.8324 132.745C56.5584 133.721 56.5532 134.502 56.8168 135.089C57.0935 135.678 57.6883 136.07 58.6012 136.264C59.0185 136.353 59.4893 136.399 60.0138 136.402C60.5512 136.407 61.0918 136.352 61.6357 136.237L61.7569 137.65ZM60.3427 129.105C59.5863 128.944 58.944 129.066 58.4157 129.47C57.9041 129.865 57.5061 130.494 57.2218 131.359L61.6036 132.292C61.7077 132.069 61.7885 131.855 61.8462 131.649C62.0481 130.931 61.9873 130.36 61.6638 129.937C61.3568 129.505 60.9165 129.227 60.3427 129.105Z" fill="black"/>
<path d="M73.5 137.028L73.2268 124.631L74.8665 124.603L75.138 136.92C75.146 137.28 75.2053 137.553 75.3161 137.737C75.4399 137.909 75.6751 137.991 76.0217 137.986L76.3417 137.98L76.3747 139.48L75.9148 139.488C75.0349 139.502 74.4165 139.279 74.0596 138.818C73.7027 138.358 73.5162 137.761 73.5 137.028Z" fill="black"/>
<path d="M92.9249 130.966L93.299 132.107C93.7396 133.45 93.7308 134.596 93.2727 135.546C92.8275 136.492 91.9515 137.128 90.6446 137.453C89.3507 137.775 88.2211 137.637 87.2559 137.042C86.2907 136.446 85.5878 135.476 85.1472 134.133L84.7731 132.993C84.3408 131.676 84.3473 130.544 84.7925 129.597C85.2464 128.635 86.1269 127.991 87.4338 127.666C88.7406 127.341 89.8723 127.485 90.8287 128.096C91.7939 128.692 92.4927 129.649 92.9249 130.966ZM91.2752 131.377C90.98 130.477 90.5423 129.826 89.962 129.422C89.3775 129.005 88.6907 128.895 87.9014 129.091C87.125 129.284 86.6085 129.694 86.3519 130.319C86.1041 130.929 86.1278 131.684 86.4229 132.583L86.797 133.723C87.1045 134.661 87.5485 135.331 88.1288 135.735C88.7221 136.136 89.4069 136.24 90.1832 136.047C90.9725 135.85 91.4911 135.447 91.7389 134.838C91.9867 134.228 91.9568 133.454 91.6492 132.517L91.2752 131.377Z" fill="black"/>
<path d="M108.389 129.754C107.745 130.133 106.985 130.404 106.107 130.568L108.881 134.137L107.468 134.969L98.7791 123.788L100.123 122.997L100.982 124.102C101.151 123.328 101.38 122.717 101.669 122.271C101.958 121.824 102.333 121.465 102.793 121.195C103.7 120.66 104.641 120.567 105.614 120.914C106.599 121.255 107.537 121.999 108.429 123.147L109.141 124.063C109.992 125.158 110.366 126.211 110.265 127.222C110.174 128.227 109.549 129.071 108.389 129.754ZM103.393 122.614C103.06 122.81 102.776 123.092 102.543 123.46C102.309 123.827 102.111 124.412 101.947 125.215L105.187 129.384C105.627 129.324 106.026 129.235 106.385 129.115C106.736 128.985 107.061 128.832 107.36 128.656C108.141 128.196 108.537 127.649 108.546 127.014C108.547 126.369 108.257 125.673 107.676 124.925L106.964 124.009C106.326 123.188 105.712 122.667 105.122 122.447C104.544 122.22 103.967 122.275 103.393 122.614Z" fill="black"/>
<path d="M124.278 114.264C124.122 114.876 123.889 115.436 123.578 115.943C123.279 116.459 122.961 116.905 122.624 117.284C121.675 118.349 120.628 118.918 119.484 118.991C118.349 119.054 117.196 118.69 116.024 117.899L115.029 117.228C113.891 116.46 113.21 115.586 112.986 114.605C112.77 113.615 113.088 112.642 113.94 111.686C114.392 111.178 114.92 110.794 115.525 110.532C116.127 110.253 116.771 110.146 117.457 110.21C118.141 110.257 118.842 110.523 119.56 111.008C120.024 111.321 120.502 111.739 120.992 112.261L117.068 116.667L117.101 116.69C117.941 117.256 118.714 117.531 119.42 117.513C120.135 117.485 120.803 117.123 121.424 116.426C121.707 116.107 121.973 115.729 122.222 115.291C122.479 114.843 122.678 114.371 122.818 113.876L124.278 114.264ZM115.133 112.492C114.619 113.069 114.439 113.649 114.593 114.231C114.745 114.796 115.183 115.347 115.908 115.884L118.887 112.538C118.715 112.374 118.54 112.233 118.364 112.113C117.745 111.695 117.15 111.549 116.579 111.674C116.005 111.781 115.524 112.054 115.133 112.492Z" fill="black"/>
<path d="M123.798 98.4246C123.547 98.9696 123.402 99.5376 123.364 100.129C123.331 100.708 123.464 101.387 123.763 102.166L130.296 104.446L129.61 105.935L120.263 102.673L120.915 101.256L122.426 101.784C122.081 100.946 121.9 100.229 121.882 99.6328C121.87 99.0242 121.993 98.4413 122.249 97.8842L123.798 98.4246Z" fill="black"/>
<path d="M25.9538 45.7124L23.8567 50.1852L29.1513 52.3497L28.4127 53.9251L15.824 48.7787L18.9145 42.1872L20.4326 42.8078L18.0807 47.8239L22.3387 49.5646L24.4358 45.0918L25.9538 45.7124Z" fill="black"/>
<path d="M33.4947 31.9581C33.0836 32.3951 32.7641 32.8901 32.5361 33.4429C32.3174 33.9861 32.2207 34.681 32.246 35.5277L37.5962 39.9165L36.4725 41.111L28.8183 34.8322L29.8872 33.696L31.1242 34.7108C31.0747 33.7927 31.1388 33.0451 31.3163 32.4681C31.503 31.8814 31.8065 31.3647 32.2267 30.918L33.4947 31.9581Z" fill="black"/>
<path d="M49.8848 24.4076L50.535 25.4162C51.3008 26.6041 51.5844 27.7195 51.3859 28.7624C51.1989 29.7988 50.5185 30.6469 49.3446 31.3068C48.1823 31.9602 47.0612 32.1247 45.9812 31.8005C44.9012 31.4762 43.9784 30.7201 43.2126 29.5323L42.5624 28.5237C41.811 27.3582 41.5288 26.2573 41.7158 25.2209C41.9071 24.1667 42.5897 23.3097 43.7636 22.6498C44.9376 21.99 46.0623 21.831 47.1379 22.173C48.2178 22.4973 49.1335 23.2421 49.8848 24.4076ZM48.4029 25.2406C47.8899 24.445 47.303 23.9275 46.6421 23.6884C45.974 23.438 45.2854 23.512 44.5764 23.9106C43.879 24.3026 43.4867 24.8361 43.3993 25.5112C43.3164 26.1685 43.5314 26.895 44.0443 27.6907L44.6945 28.6992C45.2291 29.5285 45.8269 30.0627 46.4878 30.3019C47.1603 30.5346 47.8453 30.4549 48.5427 30.0629C49.2516 29.6644 49.6476 29.1364 49.7306 28.4791C49.8135 27.8218 49.5877 27.0785 49.0531 26.2492L48.4029 25.2406Z" fill="black"/>
<path d="M63.4396 17.3369C63.0722 17.4033 62.6582 17.573 62.1975 17.8459C61.75 18.1164 61.2367 18.5953 60.6577 19.2824L62.1073 26.2737L60.4935 26.5654L58.4835 16.8716L60.0186 16.5941L60.2988 17.9453C60.8724 17.2321 61.4182 16.7135 61.9364 16.3896C62.4677 16.0633 62.9958 15.8527 63.5206 15.7578C64.4259 15.5941 65.1743 15.7568 65.7657 16.2458C66.3676 16.7195 66.7768 17.4785 66.9934 18.5229L68.3659 25.1422L66.752 25.4339L65.4283 19.0497C65.1522 17.718 64.4893 17.1471 63.4396 17.3369Z" fill="black"/>
<path d="M82.9335 25.3133C82.1413 25.5944 81.3282 25.685 80.4942 25.5852C79.7793 25.4996 79.2366 25.2869 78.8661 24.9472C78.5088 24.6091 78.2777 24.1853 78.1727 23.676C78.0809 23.1682 78.0758 22.6171 78.1574 22.0227L78.8919 16.6729L77.1841 16.4684L77.3799 15.0418L79.0877 15.2462L79.4631 12.5119L81.0915 12.7068L80.7161 15.4412L83.9332 15.8263L83.7373 17.2529L80.5203 16.8678L79.794 22.1582C79.6997 22.845 79.7469 23.3341 79.9357 23.6252C80.1395 23.9047 80.4864 24.0738 80.9762 24.1324C81.2145 24.1609 81.4631 24.1638 81.7219 24.1411C81.9957 24.1067 82.2948 24.0351 82.6193 23.9263L82.9335 25.3133Z" fill="black"/>
<path d="M97.0626 29.5774C96.3815 29.6008 95.742 29.5406 95.1441 29.3969C94.5403 29.2652 94.0061 29.0983 93.5414 28.8964C92.233 28.3277 91.4361 27.5385 91.1508 26.5289C90.8778 25.5247 91.0565 24.3901 91.687 23.1252L92.2224 22.0512C92.835 20.8221 93.6437 19.9758 94.6483 19.5123C95.6652 19.0541 96.7606 19.0802 97.9345 19.5904C98.5582 19.8614 99.0643 20.2339 99.453 20.7077C99.8599 21.1749 100.091 21.7255 100.147 22.3595C100.221 22.987 100.065 23.6885 99.6783 24.4642C99.4285 24.9654 99.0696 25.5063 98.6016 26.0869L93.1906 23.7351L93.1728 23.7709C92.7207 24.6778 92.5682 25.4463 92.7153 26.0765C92.8747 26.712 93.3823 27.2157 94.2383 27.5877C94.6296 27.7578 95.0814 27.8961 95.5937 28.0026C96.1181 28.1144 96.6572 28.1672 97.2107 28.161L97.0626 29.5774ZM97.2921 20.8791C96.5829 20.5709 95.9318 20.5638 95.3389 20.8578C94.7642 21.1452 94.2563 21.6866 93.8152 22.4821L97.9239 24.2679C98.0676 24.069 98.1871 23.8741 98.2823 23.6832C98.6153 23.015 98.6636 22.4407 98.4269 21.9603C98.2084 21.4734 97.8302 21.113 97.2921 20.8791Z" fill="black"/>
<path d="M114.261 31.7408C113.989 31.4858 113.599 31.2489 113.092 31.03C112.596 30.8203 111.879 30.6696 110.944 30.5778L105.721 35.4463L104.524 34.326L111.765 27.5755L112.904 28.6412L111.895 29.5821C112.85 29.6557 113.62 29.8111 114.204 30.0482C114.799 30.2944 115.29 30.5997 115.68 30.964C116.352 31.5925 116.648 32.2706 116.57 32.9986C116.511 33.7265 116.091 34.4541 115.311 35.1815L110.366 39.7909L109.168 38.6706L113.938 34.2248C114.932 33.2975 115.04 32.4695 114.261 31.7408Z" fill="black"/>
<path d="M118.667 51.9101L119.939 51.375C119.132 51.0501 118.507 50.706 118.066 50.3428C117.643 49.9863 117.315 49.568 117.083 49.0876C116.626 48.1389 116.641 47.2513 117.129 46.4247C117.623 45.6101 118.534 44.9236 119.861 44.3652L120.93 43.9154C122.221 43.3725 123.398 43.253 124.461 43.5569C125.53 43.8728 126.354 44.6312 126.934 45.832C127.102 46.1803 127.233 46.544 127.327 46.9233C127.421 47.3026 127.485 47.6948 127.518 48.0999L132.274 46.099L132.987 47.576L119.345 53.3152L118.667 51.9101ZM120.6 45.8963C119.641 46.2996 119.004 46.741 118.688 47.2205C118.391 47.7069 118.384 48.2442 118.668 48.8327C118.836 49.1809 119.096 49.505 119.448 49.8049C119.811 50.0996 120.412 50.4102 121.25 50.7368L126.117 48.6893C126.109 48.2739 126.057 47.8911 125.962 47.541C125.879 47.1857 125.763 46.852 125.612 46.5398C125.218 45.7232 124.682 45.2408 124.004 45.0925C123.332 44.9562 122.554 45.0742 121.669 45.4465L120.6 45.8963Z" fill="black"/>
<path d="M19 68L20.7961 73.5279H26.6085L21.9062 76.9443L23.7023 82.4721L19 79.0557L14.2977 82.4721L16.0938 76.9443L11.3915 73.5279H17.2039L19 68Z" fill="#D9D9D9"/>
<path d="M132 66L133.796 71.5279H139.608L134.906 74.9443L136.702 80.4721L132 77.0557L127.298 80.4721L129.094 74.9443L124.392 71.5279H130.204L132 66Z" fill="#D9D9D9"/>
<defs>
<clipPath id="clip0_14_87">
<rect width="55" height="55" fill="white" transform="translate(47 47)"/>
</clipPath>
</defs>
</svg>
